<svg xmlns="http://www.w3.org/2000/svg" xmlns:xlink="http://www.w3.org/1999/xlink" width="fit-content" height="32.721" viewBox="0 0 156.17 32.721"><defs><style>.a{fill:#1e888f;}.b{fill:url(#a);}</style><linearGradient id="a" x1="0.5" x2="0.5" y2="1" gradientUnits="objectBoundingBox"><stop offset="0" stop-color="#fa6c38"/><stop offset="1" stop-color="#df0d00"/></linearGradient></defs><g transform="matrix(0.999, 0.035, -0.035, 0.999, -2376.752, -1344.918)"><path class="a" d="M2551.551,1280.927c-.068,0-.1.024,0,0Z" transform="translate(-83.806 -10.323)"/><path class="a" d="M2699.979,1265.773c.02,0,.03,0,.05,0a1.7,1.7,0,0,1,.1-.178Z" transform="translate(-180.891 -0.297)"/><path class="a" d="M2723.978,1266.47l.051.017C2724.024,1266.446,2724.033,1266.4,2723.978,1266.47Z" transform="translate(-196.582 -0.848)"/><path class="a" d="M2644.669,1270.986a.194.194,0,0,0-.138.042A.55.55,0,0,1,2644.669,1270.986Z" transform="translate(-144.638 -3.824)"/><path class="a" d="M2508.361,1289.053l.035-.013c-.031-.008-.062-.012-.1-.024Z" transform="translate(-55.569 -15.612)"/><path class="a" d="M2508.684,1288.7c.189.016-.032.106-.108.135a.935.935,0,0,0,.609-.057C2509.165,1288.669,2508.787,1288.758,2508.684,1288.7Z" transform="translate(-55.748 -15.403)"/><path class="a" d="M2430.869,1307.675l.068-.064A.329.329,0,0,0,2430.869,1307.675Z" transform="translate(-4.942 -27.77)"/><path class="a" d="M2648.17,1285.955c-.04.012-.085.02-.122.033A.192.192,0,0,0,2648.17,1285.955Z" transform="translate(-146.938 -13.61)"/><path class="a" d="M2443.109,1304.409l0-.176A.266.266,0,0,0,2443.109,1304.409Z" transform="translate(-12.936 -25.561)"/><path class="a" d="M2700.4,1265.463l.058-.068A.309.309,0,0,0,2700.4,1265.463Z" transform="translate(-181.17 -0.168)"/><path class="a" d="M2746.118,1266.624a.283.283,0,0,0,.042.129h.022Z" transform="translate(-211.058 -0.972)"/><path class="a" d="M2856.811,1277.192a.223.223,0,0,0-.017-.067l-.16.112A.41.41,0,0,0,2856.811,1277.192Z" transform="translate(-283.315 -7.837)"/><path class="a" d="M2774.079,1268.385c.01-.019.035-.037.036-.058a5.867,5.867,0,0,0-1.257-.092l-.039.208Z" transform="translate(-228.515 -2.025)"/><path class="b" d="M2556.888,1271.48l-1.1-.445c1.784-.055,3.088.032,4.329.1.62.027,1.224.075,1.864.1s1.316.022,2.081-.021l-.172.082c.437.12.735-.805,5.575.605l0,.041c.17,0,.174-.081.507.048l-.833-.3a8.432,8.432,0,0,1,1.645-.246.272.272,0,0,1,.2.21l1.663.019.492.3c.516-.119.32-.7,1.657-.311-.487-.423.688-.2.534-.411.065.052.216.134.337.208a11.633,11.633,0,0,0,2.729-.215,38.247,38.247,0,0,1-3.933-1.47c1.133.168.3-.032.087-.177l-.082.094c-.677-.133-.662-.383-1-.47a.232.232,0,0,0,.016.07l.046-.031c.029.046.009.075-.029.1,0,.054-.029.094-.214.069l.038-.024a5.912,5.912,0,0,1-.991-.073l.008-.209c-.528.37-3.372-.789-4.053-.838-.671-.3-1.536-.017-2.383-.195-1.358-.14-.667-.341-1.342-.558-.849-.177.162.252-.181.249l-1.011-.345c.6.007.279-.136.173-.223-.883-.082-2.264-.542-2.552-.137-1.188-.228-1.186-.394-1.7-.427.169.08.508.157.507.241-.472-.2-.23.04-.036.086-.735.164-3.768-.848-3.936-.395l0-.083c-.18.337.083.674-.432.85l-.335-.16-.516.135c-.341-.119-.169-.206-.168-.247a15.234,15.234,0,0,1-3.009-.147l1.05.954c-.847-.234-2.376-.706-2.552-.411l-.506-.324c-1.7-.636-1.2.231-1.877.036l-.854-.36.855.026a13.813,13.813,0,0,1-1.873-.549s-.008.005-.008.009c.047.015.077.032.083.052l-.12.006c-.106.167-.553.273-1.155.248a9.787,9.787,0,0,1-2.891-.142l-.342.35-1.025-.2v-.277c1.005.011,2.9-.106,4.191-.128l.024-.126c-.767,0-1.64.133-2.146.108-.247-.054-.877-.338-.418-.528l-.475.274a27.318,27.318,0,0,1-5.25-.238l.232.137c-.529.085-1.057.167-1.207-.057a16.8,16.8,0,0,1-4.319-.545l-.223.327c-.339-.016-.857-.506-1.013-.048l-.722.148c-.464-.024-.744.183-1.275.01h0c-.033-.011-.067-.022-.1-.035a.07.07,0,0,0,.006.027c-1.052-.108.018.292-1.187.146-.392-.219-.416.428-1,.375l-.6-.448c-1.068-.232-1.236.244-2.771.3-.743-.141-1.113-.528-.637-.9-.658.452-.3.29-1.18.527-.144-.172-.05-.212.141-.378-.8-.179-.483.176-1.081.187-.161.338-.339.874-.532.9l.234.1a4.1,4.1,0,0,1-2.05.164l.021-.168-.778.112-.058-.212-1.112.1.155.052a6.864,6.864,0,0,1-1.613.055l.012-.12c-1.4-.284-2.523.272-4.142.412l.2-.255c-.566-.206-.13.382-.8.3l-.05-.295c-.557.426-.755-.036-1.164-.159l.211.378-.758-.035c-.837-.077-.54-.46-.431-.671l-.546.342-.132-.337c-.387.426-.417-.038-1.127.221-.068-.126.11-.212-.14-.252l-1.16.559.7-.26-.053.508c-.723.427-1.018.009-1.543.182l.358-.172a2.376,2.376,0,0,1-1.427-.115c.159.084.4.208.055.3-.257.044-.154-.167-.4-.208-.034.339-.646.553-1.226.433a.188.188,0,0,1,.046-.129.535.535,0,0,1-.466.1l.12-.385-.457.4c-.331-.073-.781.239-.758-.015l.178-.091-2.455.129-.06-.294c-.207.431-1.347-.036-1.222.467-.486-.237-1.8.359-1.58-.24-1.614.1-2.43.73-4.412.626a3.6,3.6,0,0,0-1.756-.2c-.723.054-1.509.173-2.139.219-2.427.487-3.987.853-6.468,1.3a5.334,5.334,0,0,0-2.665.12,9.371,9.371,0,0,1-2.717.408l-.406.332c-1.131-.277-2.7.478-4.26.273a3.833,3.833,0,0,1-.624.256.264.264,0,0,1,.239.205c-.447-.059-1.294.214-1.282-.135l.1-.051c.012-.35-1.281.343-1.805.116l.319.328c-.274.02-.549.032-.823.057l.207-.1c-3.394,1.39-5.174.5-8.357,1.788.369-.469-.615.317-.735-.11-.932-.41-1.521.4-2.175.674a.107.107,0,0,1-.033.089l-1.2.175c.609-.682-.772.617-.207.027a37.523,37.523,0,0,0-5.225.815c-1.838.423-3.729.887-5.541,1.176l.188.106a14.352,14.352,0,0,1-2.741.523c-.738-.06-1.418.709-1.679.794-.694.418-1.491.1-1.163.052-.788.261-1.424.919-2.586.992-.5-.359-2.912,1.233-3.079.727v.047c-1.522-.006-2.686,1.011-4.3,1.105a.388.388,0,0,1,.06-.094c-.886.822-1.76,1.638-2.617,2.481.48.469.938.939,1.4,1.419,1.018.2,2.01.386,3.021.61,2.329-.785,4.7-1.488,7.072-2.211l5.9-.818,7.038-1.6,7.082-1.447.943-.587c2.924.214,6.389-1.17,9.491-1.182l.01-.351a1.319,1.319,0,0,1,1.047.1c1.987-.3,3.985-.625,5.979-.954l2.984-.493c.991-.173,1.987-.284,2.972-.424,1.973-.264,3.924-.508,5.833-.712s3.776-.38,5.592-.413c.717.165,2.818-.157,3.385.034a37.36,37.36,0,0,1,7.134-1.013l-.085.046c.366-.054.734-.093,1.1-.14.048.025.058.066.024.094a17.9,17.9,0,0,1,4.752-.175l-.087.043c2.23-.123,4.417-.288,6.584-.467l1.621-.134,1.617-.095,3.225-.187c2.147-.121,4.293-.228,6.457-.295q1.623-.05,3.261-.066,1.641.033,3.3.112a41.251,41.251,0,0,0,6.6.123c1.152-.04,2.323-.083,3.5-.088a25.675,25.675,0,0,1,3.545.176C2546.473,1271.656,2556.036,1271.622,2556.888,1271.48Z" transform="translate(70.144 -129.137) rotate(3)"/><path class="a" d="M2849.807,1283.958h-.037C2849.763,1284.1,2849.821,1284.051,2849.807,1283.958Z" transform="translate(-278.827 -12.305)"/><path class="a" d="M2792.715,1269.888l.063.005-.232-.21Z" transform="translate(-241.413 -2.972)"/><path class="a" d="M2828.841,1270.973c-.571-.076-.6-.043-.521.02A1.477,1.477,0,0,0,2828.841,1270.973Z" transform="translate(-264.782 -3.786)"/><path class="a" d="M2862.4,1283.555c.3.028.19-.064.021-.171h-.519C2862.07,1283.426,2862.233,1283.512,2862.4,1283.555Z" transform="translate(-286.761 -11.929)"/><path class="a" d="M2860.085,1277.8l.1-.113C2860.008,1277.7,2860.012,1277.746,2860.085,1277.8Z" transform="translate(-285.541 -8.202)"/></g></svg>