<?xml version="1.0" standalone="no"?><svg xmlns="http://www.w3.org/2000/svg" viewBox="0 0 1440 320"><path fill="#e6e6e6" fill-opacity="1" d="M0,224L18.5,229.3C36.9,235,74,245,111,240C147.7,235,185,213,222,213.3C258.5,213,295,235,332,234.7C369.2,235,406,213,443,176C480,139,517,85,554,64C590.8,43,628,53,665,85.3C701.5,117,738,171,775,176C812.3,181,849,139,886,154.7C923.1,171,960,245,997,234.7C1033.8,224,1071,128,1108,74.7C1144.6,21,1182,11,1218,42.7C1255.4,75,1292,149,1329,186.7C1366.2,224,1403,224,1422,224L1440,224L1440,320L1421.5,320C1403.1,320,1366,320,1329,320C1292.3,320,1255,320,1218,320C1181.5,320,1145,320,1108,320C1070.8,320,1034,320,997,320C960,320,923,320,886,320C849.2,320,812,320,775,320C738.5,320,702,320,665,320C627.7,320,591,320,554,320C516.9,320,480,320,443,320C406.2,320,369,320,332,320C295.4,320,258,320,222,320C184.6,320,148,320,111,320C73.8,320,37,320,18,320L0,320Z"></path></svg>