<?xml version="1.0" standalone="no"?><svg xmlns="http://www.w3.org/2000/svg" viewBox="0 0 1440 320"><path fill="#ffffff" fill-opacity="1" d="M0,32L17.1,80C34.3,128,69,224,103,266.7C137.1,309,171,299,206,250.7C240,203,274,117,309,74.7C342.9,32,377,32,411,64C445.7,96,480,160,514,202.7C548.6,245,583,267,617,250.7C651.4,235,686,181,720,170.7C754.3,160,789,192,823,176C857.1,160,891,96,926,106.7C960,117,994,203,1029,208C1062.9,213,1097,139,1131,133.3C1165.7,128,1200,192,1234,208C1268.6,224,1303,192,1337,181.3C1371.4,171,1406,181,1423,186.7L1440,192L1440,0L1422.9,0C1405.7,0,1371,0,1337,0C1302.9,0,1269,0,1234,0C1200,0,1166,0,1131,0C1097.1,0,1063,0,1029,0C994.3,0,960,0,926,0C891.4,0,857,0,823,0C788.6,0,754,0,720,0C685.7,0,651,0,617,0C582.9,0,549,0,514,0C480,0,446,0,411,0C377.1,0,343,0,309,0C274.3,0,240,0,206,0C171.4,0,137,0,103,0C68.6,0,34,0,17,0L0,0Z"></path></svg>